<svg width="50" height="50" viewBox="0 0 50 50" fill="none" xmlns="http://www.w3.org/2000/svg">
<path d="M40.9313 20.539C40.07 20.539 39.2745 20.8304 38.6918 21.4131C38.1092 21.9958 37.8177 22.7912 37.8177 23.6526V34.432C37.8177 37.4728 35.5177 39.7728 32.4769 39.7728H15.568C12.5272 39.7728 10.2272 37.4728 10.2272 34.432V17.5231C10.2272 14.4823 12.5272 12.1823 15.568 12.1823H26.1361C26.9974 12.1823 27.7929 11.8908 28.3755 11.3082C28.9582 10.7255 29.2497 9.93001 29.2497 9.06868C29.2497 8.20735 28.9582 7.41187 28.3755 6.82921C27.7929 6.24655 26.9974 5.95508 26.1361 5.95508H15.568C9.09765 5.95508 4 11.0527 4 17.5231V34.432C4 40.9023 9.09765 46 15.568 46H32.4769C38.9473 46 44.0449 40.9023 44.0449 34.432V23.6526C44.0449 22.1096 42.8156 20.539 40.9313 20.539Z" fill="#344151" stroke="white" stroke-width="2" stroke-linejoin="round"/>
<path d="M33.7032 6.00657C33.6956 6.01354 33.6881 6.02063 33.6808 6.02784L16.5605 22.7253L16.5605 22.7253L16.5516 22.7341C14.9384 24.3473 13.7822 26.4252 13.3191 28.7405L13.3158 28.7577L12.4814 33.3472C12.1936 34.3187 12.4893 35.5632 13.4475 36.2608C13.7022 36.505 13.9925 36.7225 14.3427 36.8781C14.728 37.0494 15.1341 37.1229 15.5679 37.1229H15.5691H15.5703H15.5716H15.5728H15.574H15.5752H15.5764H15.5776H15.5788H15.58H15.5812H15.5824H15.5836H15.5847H15.5859H15.5871H15.5882H15.5894H15.5905H15.5917H15.5928H15.594H15.5951H15.5962H15.5974H15.5985H15.5996H15.6007H15.6018H15.6029H15.604H15.6051H15.6062H15.6073H15.6084H15.6095H15.6105H15.6116H15.6127H15.6137H15.6148H15.6158H15.6169H15.6179H15.619H15.62H15.6211H15.6221H15.6231H15.6241H15.6252H15.6262H15.6272H15.6282H15.6292H15.6302H15.6312H15.6322H15.6332H15.6341H15.6351H15.6361H15.6371H15.638H15.639H15.64H15.6409H15.6419H15.6428H15.6438H15.6447H15.6457H15.6466H15.6475H15.6485H15.6494H15.6503H15.6512H15.6522H15.6531H15.654H15.6549H15.6558H15.6567H15.6576H15.6585H15.6594H15.6603H15.6611H15.662H15.6629H15.6638H15.6647H15.6655H15.6664H15.6673H15.6681H15.669H15.6698H15.6707H15.6715H15.6724H15.6732H15.674H15.6749H15.6757H15.6765H15.6774H15.6782H15.679H15.6798H15.6807H15.6815H15.6823H15.6831H15.6839H15.6847H15.6855H15.6863H15.6871H15.6879H15.6887H15.6895H15.6902H15.691H15.6918H15.6926H15.6934H15.6941H15.6949H15.6957H15.6964H15.6972H15.698H15.6987H15.6995H15.7002H15.701H15.7017H15.7025H15.7032H15.704H15.7047H15.7055H15.7062H15.7069H15.7077H15.7084H15.7091H15.7098H15.7106H15.7113H15.712H15.7127H15.7134H15.7142H15.7149H15.7156H15.7163H15.717H15.7177H15.7184H15.7191H15.7198H15.7205H15.7212H15.7219H15.7226H15.7233H15.724H15.7247H15.7253H15.726H15.7267H15.7274H15.7281H15.7288H15.7294H15.7301H15.7308H15.7315H15.7321H15.7328H15.7335H15.7341H15.7348H15.7355H15.7361H15.7368H15.7375H15.7381H15.7388H15.7394H15.7401H15.7407H15.7414H15.742H15.7427H15.7433H15.744H15.7446H15.7453H15.7459H15.7466H15.7472H15.7479H15.7485H15.7492H15.7498H15.7504H15.7511H15.7517H15.7524H15.753H15.7536H15.7543H15.7549H15.7555H15.7562H15.7568H15.7574H15.7581H15.7587H15.7593H15.7599H15.7606H15.7612H15.7618H15.7624H15.7631H15.7637H15.7643H15.7649H15.7656H15.7662H15.7668H15.7674H15.7681H15.7687H15.7693H15.7699H15.7705H15.7712H15.7718H15.7724H15.773H15.7737H15.7743H15.7749H15.7755H15.7761H15.7768H15.7774H15.778H15.7786H15.7792H15.7798H15.7805H15.7811H15.7817H15.7823H15.7829H15.7836H15.7842H15.7848H15.7854H15.786H15.7867H15.7873H15.7879H15.7885H15.7891H15.7898H15.7904H15.791H15.7916H15.7923H15.7929H15.7935H15.7941H15.7948H15.7954H15.796H15.7966H15.7973H15.7979H15.7985H15.7991H15.7998H15.8004H15.801H15.8017H15.8023H15.8029H15.8036H15.8042H15.8048H15.8055H15.8061H15.8067H15.8074H15.808H15.8087H15.8093H15.8099H15.8106H15.8112H15.8119H15.8125H15.8132H15.8138H15.8145H15.8151H15.8158H15.8164H15.8171H15.8177H15.8184H15.819H15.8197H15.8203H15.821H15.8217H15.8223H15.823H15.8237H15.8243H15.825H15.8257H15.8263H15.827H15.8277H15.8283H15.829H15.8297H15.8304H15.8311H15.8317H15.8324H15.8331H15.8338H15.8345H15.8352H15.8359H15.8366H15.8373H15.8379H15.8386H15.8393H15.84H15.8408H15.8415H15.8422H15.8429H15.8436H15.8443H15.845H15.8457H15.8464H15.8472H15.8479H15.8486H15.8493H15.8501H15.8508H15.8515H15.8523H15.853H15.8537H15.8545H15.8552H15.856H15.8567H15.8575H15.8582H15.859H15.8597H15.8605H15.8613H15.862H15.8628H15.8635H15.8643H15.8651H15.8659H15.8666H15.8674H15.8682H15.869H15.8698H15.8706H15.8714H15.8722H15.873H15.8738H15.8746H15.8754H15.8762H15.877H15.8778H15.8786H15.8794H15.8803H15.8811H15.8819H15.8827H15.8836H15.8844H15.8852H15.8861H15.8869H15.8878H15.8886H15.8895H15.8903H15.8912H15.8921H15.8929H15.8938H15.8947H15.8955H15.8964H15.8973H15.8982H15.8991H15.9H15.9009H15.9018H15.9027H15.9036H15.9045H15.9054H15.9063H15.9072H15.9081H15.9091H15.91H15.9109H15.9118H15.9128H15.9137H15.9147H15.9156H15.9166H15.9175H15.9185H15.9194H15.9204H15.9214H15.9224H15.9233H15.9243H15.9253H15.9263H15.9273H15.9283H15.9293H15.9303H15.9313H15.9323H15.9333H15.9343H15.9353H15.9364H15.9374H15.9384H15.9395H15.9405H15.9416H15.9426H15.9437H15.9447H15.9458H15.9468H15.9479H15.949H15.9501H15.9512H15.9522H15.9533H15.9544H15.9555H15.9566H15.9577H15.9589H15.96H15.9611H15.9622H15.9633H15.9645H15.9656H15.9668H15.9679H15.9691H15.9702H15.9714H15.9725H15.9737H15.9749H15.9761H15.9773H15.9784H15.9796H15.9808H15.982H15.9832H15.9845H15.9857H15.9869H15.9881H15.9894H15.9906C16.0506 37.1229 16.1104 37.1175 16.1695 37.1067L20.8194 36.2613L20.8366 36.258C23.1508 35.7952 25.2279 34.6397 26.8408 33.0277C26.8415 33.0269 26.8423 33.0262 26.843 33.0255L43.9302 16.1492C45.4521 14.8606 46.1584 12.874 46.1584 10.9709C46.1584 9.02806 45.4258 7.26777 43.9311 6.0047C41.1955 3.30541 36.593 3.35763 33.7032 6.00657ZM22.6926 28.4295L22.6811 28.4408C21.9943 29.1276 20.921 29.6726 19.842 29.8524C19.8158 29.8568 19.7897 29.8622 19.7639 29.8687L19.7371 29.8754C19.916 28.8998 20.4134 28.0423 21.3449 27.1101L33.7649 14.8905L35.2507 16.2701L22.6926 28.4295ZM39.7424 11.6184C39.6876 11.6549 39.6365 11.6968 39.59 11.7434L39.4259 11.9074L37.9335 10.5215L38.0451 10.4099C38.1427 10.3123 38.2847 10.2215 38.4492 10.1557C38.618 10.0882 38.7558 10.0687 38.8175 10.0687C39.0179 10.0687 39.1402 10.1009 39.2304 10.141C39.325 10.1831 39.4376 10.2576 39.59 10.4099C39.9037 10.7236 39.9311 10.907 39.9311 10.9709C39.9311 11.1957 39.9254 11.319 39.8941 11.4234C39.8736 11.4916 39.8435 11.551 39.7424 11.6184Z" fill="#344151" stroke="white" stroke-width="2" stroke-linejoin="round"/>
</svg>
