<svg width="51" height="50" viewBox="0 0 51 50" fill="none" xmlns="http://www.w3.org/2000/svg">
<path d="M40.5731 3.64575H10.4272C6.96475 3.64575 4.146 6.46242 4.146 9.927V40.0749C4.146 43.5374 6.96266 46.3562 10.4272 46.3562H40.5752C44.0377 46.3562 46.8564 43.5395 46.8564 40.0749V9.927C46.8543 6.46242 44.0377 3.64575 40.5731 3.64575ZM44.3418 40.0728C44.3418 42.1499 42.6522 43.8416 40.5731 43.8416H10.4272C8.35016 43.8416 6.6585 42.152 6.6585 40.0728V35.5291L16.796 24.2645L30.4897 36.7124L38.0627 30.402L44.3439 35.6353L44.3418 40.0728ZM44.3418 32.3666L38.0606 27.1333L30.5585 33.3833L16.6189 20.7083L6.6585 31.7749V9.927C6.6585 7.84992 8.34808 6.15825 10.4272 6.15825H40.5752C42.6522 6.15825 44.3439 7.84783 44.3439 9.927L44.3418 32.3666Z" fill="black"/>
<path d="M34.2939 22.4875C37.7564 22.4875 40.5752 19.6709 40.5752 16.2063C40.5752 12.7417 37.7585 9.92505 34.2939 9.92505C30.8314 9.92505 28.0127 12.7417 28.0127 16.2063C28.0127 19.6709 30.8294 22.4875 34.2939 22.4875ZM34.2939 12.4396C36.371 12.4396 38.0627 14.1292 38.0627 16.2084C38.0627 18.2875 36.3731 19.9771 34.2939 19.9771C32.2148 19.9771 30.5252 18.2875 30.5252 16.2084C30.5252 14.1292 32.2148 12.4396 34.2939 12.4396Z" fill="black"/>
</svg>
