<svg width="50" height="50" viewBox="0 0 50 50" fill="none" xmlns="http://www.w3.org/2000/svg">
<path d="M25.7071 12.5254L25 11.8183L24.2929 12.5254L9.29289 27.5254L9 27.8183V28.2325V38.75C9 40.0098 9.50045 41.218 10.3912 42.1088C11.282 42.9996 12.4902 43.5 13.75 43.5H36.25C37.5098 43.5 38.718 42.9996 39.6088 42.1088C40.4996 41.218 41 40.0098 41 38.75V28.2325V27.8183L40.7071 27.5254L25.7071 12.5254ZM24.291 26.9102L25 27.6231L25.709 26.9102C27.2628 25.3481 30.1149 25.8963 31.1351 27.8443C31.6089 28.749 31.7246 30.0665 30.8407 31.7717C29.9895 33.4139 28.2151 35.3914 25 37.5525C21.7849 35.3914 20.0105 33.4139 19.1593 31.7717C18.2754 30.0665 18.3911 28.749 18.8649 27.8443C19.8851 25.8963 22.7372 25.3481 24.291 26.9102Z" fill="#344151" stroke="white" stroke-width="2"/>
<path d="M27.4743 8.04293L27.4742 8.04282C26.8179 7.38667 25.9278 7.01807 24.9997 7.01807C24.0716 7.01807 23.1816 7.38667 22.5252 8.04282L22.5252 8.04287L5.90767 24.6579L5.90711 24.6584C5.48532 25.0808 5.2486 25.6535 5.24902 26.2504C5.24945 26.8473 5.48698 27.4196 5.90936 27.8414C6.33175 28.2632 6.90439 28.4999 7.50131 28.4995C8.098 28.4991 8.67008 28.2617 9.09183 27.8396C9.09199 27.8395 9.09216 27.8393 9.09232 27.8391L24.9997 11.9317L40.9071 27.8391C40.9073 27.8393 40.9074 27.8395 40.9076 27.8396C41.3294 28.2617 41.9014 28.4991 42.4981 28.4995C43.095 28.4999 43.6677 28.2632 44.0901 27.8414C44.5125 27.4196 44.75 26.8473 44.7504 26.2504C44.7508 25.6535 44.5141 25.0808 44.0923 24.6584L44.0917 24.6578L38.4997 19.0682V11.25C38.4997 10.6533 38.2627 10.081 37.8407 9.65904C37.4188 9.23709 36.8465 9.00003 36.2497 9.00003H33.7497C33.153 9.00003 32.5807 9.23709 32.1587 9.65904C31.7368 10.081 31.4997 10.6533 31.4997 11.25V12.0683L27.4743 8.04293Z" fill="#344151" stroke="white" stroke-width="2"/>
</svg>
