<svg width="1920" height="650" viewBox="0 0 1920 650" fill="none" xmlns="http://www.w3.org/2000/svg">
<path opacity="0.4" fill-rule="evenodd" clip-rule="evenodd" d="M66 288.5C4.52933 190.626 0 0 0 0V650H1920V18.4489C1920.26 7.00688 1920 0 1920 0V18.4489C1919.11 58.0467 1912.08 150.763 1867 190C1845.7 208.541 1831.02 217.277 1804 225.5C1767.57 236.587 1738.54 235.653 1706.5 225.5C1681.5 217.577 1665.87 206.897 1643.5 189.5C1633.59 181.795 1625.14 174.38 1616.78 167.043C1606.14 157.716 1595.65 148.515 1582.5 139C1556.8 120.407 1539.7 111.249 1508.5 105.5C1466.16 97.6978 1441.95 105.135 1399.5 122C1345.31 143.529 1262.5 242.5 1262.5 242.5C1262.5 242.5 1209.07 309.128 1148.42 365.344C1148.81 364.988 1149.19 364.632 1149.58 364.275C1123.08 442.377 1049.65 498.81 962.875 499.978C942.907 509.462 921.049 518.187 896 526.5C802.819 557.424 703.423 578.582 579.5 566C459.831 553.85 375.713 542.371 266.5 477.5C173.986 422.548 125.333 382.97 66 288.5Z" fill="#4C6079"/>
</svg>
